<svg width="24" height="24" viewBox="0 0 24 24" fill="none" xmlns="http://www.w3.org/2000/svg">
<path d="M11.856 9.35993C12.1334 9.60943 12.3168 9.88672 12.3542 10.2624C12.355 10.3288 12.3551 10.3952 12.3545 10.4616C12.3547 10.4982 12.355 10.5347 12.3553 10.5724C12.3557 10.6512 12.3559 10.7301 12.3557 10.8089C12.3555 10.9338 12.3562 11.0587 12.3571 11.1837C12.3591 11.4937 12.3597 11.8038 12.3603 12.1139C12.3608 12.3764 12.3619 12.6389 12.3638 12.9014C12.3645 13.0242 12.3643 13.147 12.3641 13.2698C12.3645 13.3453 12.365 13.4209 12.3655 13.4965C12.3652 13.5304 12.3649 13.5643 12.3646 13.5992C12.3674 13.8205 12.4107 13.9723 12.528 14.1599C12.6503 14.2502 12.6503 14.2502 12.768 14.3039C12.6225 14.4009 12.558 14.4194 12.39 14.4449C12.3395 14.4527 12.2889 14.4604 12.2368 14.4684C12.1745 14.4775 12.1122 14.4866 12.048 14.4959C11.9646 14.5086 11.8811 14.5213 11.7977 14.534C11.7081 14.5473 11.6186 14.5607 11.529 14.5739C11.486 14.5804 11.4431 14.5869 11.3988 14.5936C10.9336 14.6609 10.9336 14.6609 10.704 14.6399C10.5941 14.475 10.5994 14.4006 10.608 14.2079C10.5674 14.2311 10.5268 14.2542 10.485 14.2781C9.91997 14.5927 9.39826 14.7671 8.73863 14.6052C8.3503 14.4586 8.02385 14.2439 7.82401 13.8719C7.68289 13.5201 7.65076 13.0957 7.77169 12.7329C7.82977 12.6244 7.89314 12.5295 7.96801 12.4319C7.9883 12.4026 8.0086 12.3733 8.02951 12.3431C8.55871 11.6446 9.63135 11.4209 10.4276 11.1515C11.3357 10.8778 11.3357 10.8778 12.0546 10.3111C12.1318 10.1485 12.1403 10.0137 12.096 9.83993C11.9448 9.48332 11.6035 9.3232 11.2703 9.16605C10.7501 8.97146 10.0728 9.01586 9.54882 9.17036C9.43967 9.2143 9.43967 9.2143 9.36001 9.35993C9.32101 9.62505 9.42517 9.76985 9.57601 9.97493C9.85198 10.3779 9.85198 10.3779 9.81901 10.6546C9.73771 10.9476 9.62264 11.1614 9.36001 11.3279C9.14659 11.4465 8.92639 11.4567 8.68801 11.4239C8.42911 11.3332 8.26781 11.1639 8.11201 10.9439C8.01349 10.6371 8.04204 10.3309 8.15307 10.0329C8.45778 9.4952 9.02651 9.20625 9.59082 9.01793C10.3638 8.806 11.1933 8.89658 11.856 9.35993Z" fill="white"/>
<path d="M15.024 9.07204C15.1505 9.19856 15.1322 9.25491 15.1328 9.43148C15.1332 9.48746 15.1336 9.54344 15.1341 9.60112C15.134 9.66285 15.134 9.72459 15.1339 9.7882C15.1342 9.85364 15.1345 9.91908 15.1349 9.98452C15.1358 10.1627 15.136 10.3408 15.136 10.5189C15.1361 10.6303 15.1363 10.7417 15.1366 10.8531C15.1375 11.2421 15.1378 11.631 15.1378 12.02C15.1377 12.3819 15.1387 12.7438 15.1402 13.1058C15.1415 13.4168 15.142 13.7278 15.142 14.0389C15.1419 14.2245 15.1422 14.4101 15.1432 14.5957C15.1442 14.7706 15.1442 14.9456 15.1435 15.1205C15.1433 15.2146 15.1441 15.3088 15.1449 15.4029C15.1412 15.9278 15.0217 16.3172 14.6552 16.6992C14.1885 17.1226 13.5862 17.3745 12.9493 17.3464C12.321 17.2598 11.6367 16.9675 11.2453 16.4509C11.0084 16.1048 10.9445 15.8293 10.992 15.408C11.0817 15.181 11.2548 15.0204 11.4712 14.9117C11.739 14.824 12.0032 14.8448 12.258 14.961C12.4844 15.0902 12.6156 15.2681 12.72 15.504C12.7851 15.8256 12.6832 16.0404 12.509 16.3075C12.4587 16.3784 12.4063 16.4478 12.3515 16.5154C12.2532 16.6588 12.2696 16.7754 12.288 16.944C12.3881 17.1054 12.5435 17.1344 12.72 17.184C12.8475 17.1954 12.9676 17.2023 13.095 17.202C13.1455 17.2021 13.1455 17.2021 13.1971 17.2021C13.4731 17.1963 13.7642 17.1479 13.968 16.944C13.9963 16.7885 14.0071 16.71 13.968 16.56C13.868 16.4234 13.7589 16.3059 13.6399 16.1856C13.4745 16.0175 13.428 15.9204 13.4279 15.6892C13.4277 15.6382 13.4274 15.5871 13.4271 15.5345C13.4273 15.4784 13.4275 15.4224 13.4277 15.3647C13.4276 15.3057 13.4274 15.2466 13.4272 15.1858C13.4269 15.0574 13.4267 14.9291 13.4268 14.8007C13.427 14.5975 13.4263 14.3944 13.4254 14.1913C13.4232 13.6136 13.422 13.036 13.4217 12.4584C13.4215 12.1393 13.4207 11.8203 13.4191 11.5013C13.4181 11.2995 13.418 11.0977 13.4185 10.8959C13.4187 10.7406 13.4176 10.5853 13.4167 10.43C13.4171 10.3743 13.4174 10.3186 13.4179 10.2611C13.4148 9.96412 13.4055 9.7747 13.2 9.55204C13.075 9.48427 13.075 9.48427 12.96 9.45604C12.96 9.42436 12.96 9.39268 12.96 9.36004C13.2925 9.28019 13.6226 9.23005 13.962 9.18904C14.0599 9.17711 14.1578 9.16506 14.2556 9.15286C14.2984 9.14769 14.3411 9.14252 14.3851 9.13719C14.8575 9.06412 14.8575 9.06412 15.024 9.07204Z" fill="white"/>
<path d="M10.656 11.184C10.656 12.2769 10.656 13.3699 10.656 14.496C10.6402 14.496 10.6243 14.496 10.608 14.496C10.608 14.4009 10.608 14.3059 10.608 14.208C10.5674 14.2311 10.5268 14.2543 10.485 14.2781C9.91997 14.5927 9.39826 14.7671 8.73863 14.6053C8.3503 14.4586 8.02385 14.244 7.82401 13.872C7.68289 13.5202 7.65076 13.0957 7.77169 12.7329C7.82977 12.6244 7.89314 12.5296 7.96801 12.432C7.99845 12.388 7.99845 12.388 8.02951 12.3431C8.38733 11.8709 8.96659 11.6681 9.50401 11.472C9.54457 11.4568 9.58513 11.4417 9.62691 11.4261C9.7567 11.3777 9.88679 11.3302 10.017 11.283C10.079 11.26 10.079 11.26 10.1423 11.2366C10.1814 11.2228 10.2204 11.2089 10.2606 11.1947C10.2952 11.1822 10.3298 11.1697 10.3655 11.1568C10.464 11.136 10.464 11.136 10.656 11.184Z" fill="white"/>
<path d="M11.856 9.35994C12.0719 9.55446 12.223 9.74295 12.288 10.0319C12.2405 10.0636 12.193 10.0953 12.144 10.1279C12.1321 10.0695 12.1203 10.0111 12.108 9.95094C12.0313 9.65586 11.8877 9.51615 11.634 9.35394C11.0344 9.01724 10.3363 8.96855 9.66901 9.13494C9.49262 9.18695 9.46674 9.19984 9.36001 9.35994C9.32101 9.62506 9.42517 9.76987 9.57601 9.97494C9.85198 10.378 9.85198 10.378 9.81901 10.6546C9.73772 10.9476 9.62265 11.1614 9.36001 11.3279C9.1466 11.4465 8.92639 11.4567 8.68801 11.4239C8.42912 11.3332 8.26782 11.1639 8.11201 10.9439C8.01349 10.6372 8.04205 10.3309 8.15307 10.0329C8.45778 9.49521 9.02652 9.20626 9.59082 9.01794C10.3636 8.80607 11.1936 8.89643 11.856 9.35994Z" fill="white"/>
<path d="M12.258 14.9609C12.4844 15.0901 12.6156 15.2679 12.72 15.5039C12.7851 15.8255 12.6832 16.0403 12.5091 16.3074C12.4587 16.3783 12.4063 16.4477 12.3516 16.5153C12.2532 16.6587 12.2696 16.7752 12.288 16.9439C12.3881 17.1052 12.5434 17.1347 12.72 17.1839C12.8482 17.1929 12.97 17.1976 13.098 17.1959C13.1318 17.1957 13.1656 17.1956 13.2004 17.1954C13.4394 17.1914 13.646 17.1633 13.872 17.0879C13.8878 17.1196 13.9037 17.1513 13.92 17.1839C13.1781 17.4014 12.6033 17.3588 11.91 16.9979C11.4956 16.7567 11.1482 16.4527 10.992 15.9839C10.9647 15.7171 10.9373 15.4477 11.091 15.2159C11.4033 14.8591 11.819 14.7606 12.258 14.9609Z" fill="white"/>
<path d="M10.608 11.2319C10.608 12.1823 10.608 13.1327 10.608 14.1119C10.4295 14.2012 10.2269 14.1806 10.032 14.1599C9.7633 14.0383 9.6305 13.8417 9.50401 13.5839C9.35223 13.1792 9.31718 12.5964 9.48601 12.1919C9.52176 12.1266 9.55978 12.0626 9.60001 11.9999C9.61981 11.9671 9.63961 11.9343 9.66001 11.9006C9.85779 11.605 10.2339 11.2319 10.608 11.2319Z" fill="#060C17"/>
<path d="M14.6023 6.76561C14.8453 6.90906 15.0287 7.07012 15.12 7.34405C15.1552 7.66864 15.1287 7.94225 14.928 8.20805C14.6234 8.45052 14.3476 8.48721 13.968 8.44805C13.6943 8.31367 13.512 8.10319 13.392 7.82405C13.354 7.55287 13.3833 7.33574 13.536 7.10405C13.8152 6.77961 14.1837 6.5862 14.6023 6.76561Z" fill="#4FC3F7"/>
</svg>
